<svg width="32" height="31" viewBox="0 0 32 31" fill="none" xmlns="http://www.w3.org/2000/svg">
<path id="Vector" d="M28.4788 30.8148H3.5098C3.44466 30.8043 3.38005 30.7878 3.31437 30.784C2.44935 30.7331 1.70554 30.4112 1.08587 29.8349C0.343125 29.1441 0.00138806 28.2842 0.00112108 27.2981C-0.000747799 19.4988 5.31473e-05 11.6993 0.00112108 3.90003C0.00112108 3.6607 0.00859658 3.42085 0.0230136 3.18204C0.0726723 2.35838 0.405065 1.64938 0.994562 1.05709C1.72022 0.32778 2.62529 0.000786293 3.66385 0.000529223C11.8655 -0.000241989 20.0672 -0.00075613 28.2687 0.003357C28.5645 0.003357 28.8638 0.0306065 29.155 0.079964C30.5655 0.318783 31.7643 1.54527 31.9389 2.91185C31.9578 3.05941 31.9794 3.20671 32 3.35402V27.4498C31.9899 27.4909 31.9781 27.5318 31.9701 27.5732C31.913 27.8698 31.8972 28.1804 31.7931 28.4608C31.3136 29.7541 30.3621 30.5243 28.9508 30.7562C28.7943 30.7819 28.6363 30.7955 28.4788 30.8148ZM17.3128 13.5641V13.4638C17.3128 12.9245 17.3128 12.3852 17.3128 11.8456C17.3128 11.6687 17.3125 11.6682 17.1315 11.6682C15.7224 11.6682 14.313 11.6682 12.9038 11.6682C12.7695 11.6682 12.7023 11.7338 12.7023 11.8651C12.7023 16.6983 12.7023 21.5312 12.7023 26.3644C12.7023 26.5564 12.7023 26.557 12.8966 26.557C14.3015 26.557 15.7061 26.557 17.1109 26.557C17.2455 26.557 17.3129 26.4911 17.313 26.3595C17.313 23.7868 17.3104 21.214 17.316 18.6412C17.3171 18.1749 17.3787 17.7122 17.5274 17.2649C17.7688 16.5387 18.2032 15.9685 18.9499 15.6592C19.4852 15.4374 20.0467 15.3949 20.6202 15.4595C21.4708 15.5551 22.0627 15.9906 22.4156 16.7356C22.6879 17.3106 22.7798 17.9245 22.7819 18.5459C22.7915 21.1528 22.7862 23.76 22.7862 26.367C22.7862 26.4933 22.8519 26.5566 22.9835 26.557C24.4415 26.557 25.8997 26.557 27.3577 26.557C27.5051 26.557 27.5789 26.4871 27.579 26.3474C27.579 23.4536 27.5812 20.5598 27.5769 17.6659C27.5761 17.2088 27.5563 16.7513 27.528 16.2947C27.4872 15.6343 27.3414 14.9929 27.0939 14.3757C26.5861 13.1083 25.7059 12.1772 24.3921 11.6551C23.3426 11.2381 22.2461 11.1409 21.1264 11.2787C19.965 11.4217 18.9622 11.896 18.1255 12.6798C17.8315 12.9551 17.5792 13.2718 17.3128 13.5641ZM9.68323 19.1088C9.68323 16.6947 9.68323 14.2808 9.68323 11.8667C9.68323 11.7345 9.61666 11.6684 9.48353 11.6682C8.01219 11.6682 6.54112 11.6682 5.06978 11.6682C4.87141 11.6682 4.87034 11.6685 4.87034 11.86C4.87034 16.6965 4.87034 21.5333 4.87034 26.3698C4.87034 26.5546 4.87328 26.557 5.0631 26.557C6.53871 26.557 8.01459 26.557 9.4902 26.557C9.68323 26.557 9.68323 26.5564 9.68323 26.3636C9.68323 23.9454 9.68323 21.5274 9.68323 19.1088ZM7.24889 9.76124C8.70981 9.78541 10.0946 8.65147 10.0979 7.01007C10.1011 5.47485 8.85398 4.25633 7.26544 4.25222C5.6841 4.24811 4.4162 5.45583 4.41594 7.00699C4.41594 8.63836 5.79303 9.77667 7.24889 9.76124Z" fill="#476B9D"/>
</svg>
