<svg width="28" height="35" viewBox="0 0 28 35" fill="none" xmlns="http://www.w3.org/2000/svg">
<g clip-path="url(#clip0_623_7594)">
<path d="M0.805259 0C0.345111 0 0 0.37387 0 0.805259V34.1947C0 34.6261 0.345111 35 0.805259 35H26.6023C27.0337 35 27.4076 34.6549 27.4076 34.1947V10.6697C27.4076 10.6697 27.4076 10.6122 27.4076 10.5834C27.4076 10.5834 27.4076 10.5259 27.4076 10.4971C27.4076 10.4971 27.4076 10.4396 27.4076 10.4108C27.4076 10.4108 27.4076 10.3533 27.3788 10.3246C27.3788 10.3246 27.3788 10.267 27.35 10.2383C27.35 10.2383 27.35 10.1808 27.3213 10.1808C27.3213 10.1808 27.2925 10.152 27.2638 10.1233C27.2638 10.1233 27.2638 10.1233 27.235 10.0945L17.2843 0.230074C17.1405 0.0862777 16.9392 0 16.7091 0H0.805259ZM1.61052 1.61052H15.9039V10.6697C15.9039 11.1011 16.249 11.4749 16.7091 11.4749H25.7683V33.3895H1.61052V1.61052ZM17.5144 2.76089L24.6467 9.89318H17.5144V2.73213V2.76089ZM11.82 13.9195C11.6187 13.9195 11.4174 13.9195 11.2161 13.977C10.4108 14.1783 9.83566 14.8973 9.74938 15.645C9.66311 16.3928 9.92194 17.1117 10.3246 17.917C10.6697 18.636 11.4749 19.3837 12.0501 20.1602C11.9063 21.0805 11.9638 21.7995 11.705 22.7486C11.4462 23.6976 11.0435 24.3016 10.6984 25.1643C9.83566 25.5382 8.74281 25.797 8.11011 26.2284C7.39113 26.7173 6.78718 27.235 6.49959 27.8965C6.18324 28.5867 6.35579 29.4782 6.93098 30.0534C7.50616 30.6286 8.42646 30.8012 9.11668 30.4848C9.8069 30.1684 10.2958 29.5933 10.7847 28.8743C11.2161 28.2128 11.5037 27.1487 11.8488 26.2859C12.7116 25.9408 13.3155 25.5382 14.2646 25.2794C15.2136 25.0205 15.9614 25.0781 16.8529 24.9343C17.6007 25.5094 18.3772 26.2859 19.0961 26.6598C19.8726 27.0337 20.6204 27.2925 21.3394 27.235C22.0871 27.1487 22.7773 26.5735 23.0074 25.7683C23.2087 24.963 22.8924 24.1002 22.2884 23.6689C21.6845 23.2375 20.9367 23.0937 20.0452 23.0362C19.2687 22.9786 18.2046 23.295 17.2555 23.41C16.5366 22.8348 15.8751 22.4897 15.1849 21.7995C14.4947 21.1093 14.1495 20.4478 13.5744 19.7288C13.6894 18.7798 14.0058 17.7157 13.9482 16.9392C13.8907 16.0764 13.7469 15.2999 13.3155 14.696C12.9992 14.2358 12.424 13.9482 11.82 13.9195ZM11.82 15.3862C11.9638 15.3862 11.9926 15.3862 12.1076 15.5588C12.2514 15.7601 12.424 16.3065 12.4815 17.0255C12.4815 17.2843 12.3377 17.7732 12.3377 18.0608C12.1652 17.802 11.82 17.4569 11.705 17.2268C11.3887 16.5653 11.2736 16.0189 11.3024 15.7888C11.3024 15.53 11.3024 15.53 11.6475 15.4437C11.7338 15.4437 11.7913 15.415 11.8488 15.3862H11.82ZM13.3155 21.7995C13.6319 22.1446 13.7757 22.5185 14.1208 22.8636C14.4659 23.2087 14.811 23.3525 15.1849 23.6689C14.7247 23.7839 14.3221 23.7264 13.862 23.8414C13.4018 23.9564 13.0855 24.2153 12.6253 24.3591C12.7691 23.8989 12.9992 23.5826 13.143 23.1224C13.258 22.6623 13.2293 22.2597 13.3155 21.7995ZM19.9589 24.5316C20.6779 24.5892 21.2243 24.7617 21.4256 24.9055C21.627 25.0493 21.6557 25.0493 21.5694 25.3944C21.4832 25.7395 21.4544 25.7108 21.2243 25.7395C20.9655 25.7395 20.4191 25.6532 19.7864 25.3369C19.5563 25.2219 19.2112 24.848 18.9523 24.7042C19.2687 24.7042 19.7288 24.5604 19.9877 24.5604L19.9589 24.5316ZM9.92194 27.0912C9.77814 27.35 9.66311 27.8389 9.51931 28.069C9.11668 28.673 8.71405 29.0468 8.45522 29.1619C8.22514 29.2769 8.22514 29.3057 7.96631 29.0468C7.70748 28.788 7.73624 28.788 7.85127 28.5579C7.96631 28.3279 8.34018 27.9252 8.94412 27.5226C9.1742 27.3788 9.63435 27.2638 9.92194 27.12V27.0912Z" fill="#476B9D"/>
</g>
<defs>
<clipPath id="clip0_623_7594">
<rect width="27.4076" height="35" fill="white"/>
</clipPath>
</defs>
</svg>
